<svg xmlns="http://www.w3.org/2000/svg" viewBox="0 0 128 152" role="img" aria-label="Aegis shield">
  <defs>
    <linearGradient id="rim" x1="0" y1="0" x2="1" y2="1">
      <stop offset="0%" stop-color="#6f3e25"/>
      <stop offset="40%" stop-color="#8b5534"/>
      <stop offset="100%" stop-color="#4f2d1a"/>
    </linearGradient>
    <radialGradient id="plate" cx="50%" cy="35%" r="75%">
      <stop offset="0%" stop-color="#6b4b39"/>
      <stop offset="45%" stop-color="#4d382e"/>
      <stop offset="100%" stop-color="#2f241f"/>
    </radialGradient>
  </defs>

  <path d="M14 12h100l-2 22-8 44c-5 24-18 44-40 61C42 122 29 102 24 78l-8-44-2-22z" fill="url(#rim)"/>
  <path d="M22 20h84l-2 14-7 40c-4 20-14 37-33 52-19-15-29-32-33-52l-7-40-2-14z" fill="url(#plate)" stroke="#2a1d18" stroke-width="2"/>

  <g fill="#2e211b">
    <circle cx="24" cy="22" r="2.6"/><circle cx="40" cy="22" r="2.6"/><circle cx="56" cy="22" r="2.6"/><circle cx="72" cy="22" r="2.6"/><circle cx="88" cy="22" r="2.6"/><circle cx="104" cy="22" r="2.6"/>
    <circle cx="21" cy="38" r="2.5"/><circle cx="18" cy="56" r="2.5"/><circle cx="17" cy="76" r="2.5"/>
    <circle cx="107" cy="38" r="2.5"/><circle cx="110" cy="56" r="2.5"/><circle cx="111" cy="76" r="2.5"/>
    <circle cx="24" cy="102" r="2.5"/><circle cx="36" cy="118" r="2.5"/><circle cx="64" cy="133" r="2.5"/><circle cx="92" cy="118" r="2.5"/><circle cx="104" cy="102" r="2.5"/>
  </g>
</svg>
