<svg xmlns="http://www.w3.org/2000/svg" viewBox="0 0 64 64" role="img" aria-label="Aegis shield icon">
  <defs>
    <linearGradient id="bg" x1="0" y1="0" x2="1" y2="1">
      <stop offset="0%" stop-color="#020617"/>
      <stop offset="100%" stop-color="#0b1220"/>
    </linearGradient>
    <linearGradient id="shield" x1="0" y1="0" x2="1" y2="1">
      <stop offset="0%" stop-color="#22d3ee"/>
      <stop offset="100%" stop-color="#0891b2"/>
    </linearGradient>
  </defs>
  <rect width="64" height="64" rx="14" fill="url(#bg)"/>
  <path d="M32 8l18 7v13c0 13-9 23-18 28-9-5-18-15-18-28V15l18-7z" fill="url(#shield)" opacity="0.22"/>
  <path d="M32 11l15 6v11c0 11-7.7 19.8-15 24-7.3-4.2-15-13-15-24V17l15-6z" fill="none" stroke="#22d3ee" stroke-width="2.8"/>
  <path d="M32 19l8 3.2v6.8c0 6.9-4.5 12.4-8 14.8-3.5-2.4-8-7.9-8-14.8v-6.8L32 19z" fill="#e2e8f0" opacity="0.96"/>
  <path d="M32 22v18" stroke="#0f172a" stroke-width="2.2" stroke-linecap="round"/>
  <path d="M26.8 30h10.4" stroke="#0f172a" stroke-width="2.2" stroke-linecap="round"/>
</svg>
